<svg width="40" height="40" viewBox="0 0 40 40" fill="none" xmlns="http://www.w3.org/2000/svg">
<path d="M31.7004 26.2499C30.0141 25.2845 29.2023 25.4912 24.3938 27.0181L19.4621 20.2788C23.307 20.3186 29.5057 19.8159 30.8108 14.7514C31.3096 12.811 31.0004 11.0489 29.925 9.6604C28.5004 7.82239 25.8146 6.81519 22.3586 6.81519C20.2721 6.81519 9.79407 7.0466 9.34832 7.05798L9.28952 7.17748V9.21844L16.1067 18.5432H9.29332V20.2275H16.9033H17.3453L22.7019 27.553C16.1749 29.594 13.0281 30.2484 11.818 30.4514C11.392 30.53 10.9571 30.5472 10.5262 30.5026C8.94241 30.3129 8.94241 29.4973 8.94241 29.2071C8.94241 28.4275 9.85857 28.069 9.89082 28.0557L9.32178 26.4737C8.56305 26.7507 7.26562 27.6384 7.26562 29.2071C7.26562 29.8842 7.52928 32.0523 10.8696 32.2135C11.1728 32.2262 11.4766 32.2084 11.7763 32.1604C12.9599 31.9878 16.2982 31.3429 23.802 28.9738C24.7504 30.0303 27.2277 32.4506 29.7429 32.4506C30.2433 32.4525 30.7387 32.3504 31.1977 32.1509C32.4458 31.6065 33.2008 30.569 33.269 29.3057C33.3373 28.0424 32.7 26.8304 31.7042 26.2556L31.7004 26.2499ZM11.0004 8.70062C14.115 8.63233 20.7842 8.49387 22.3605 8.49387C25.2835 8.49387 27.4989 9.27345 28.5991 10.6904C29.3445 11.6559 29.5475 12.9134 29.1833 14.3304C28.0452 18.7442 21.579 18.6684 18.2159 18.5697L11.0004 8.70062ZM30.5206 30.6069C28.9936 31.2727 26.8711 29.668 25.5888 28.4066C29.6063 27.1395 29.8927 27.1528 30.8658 27.7105C31.3172 27.9684 31.6245 28.5982 31.5866 29.209C31.5619 29.6452 31.359 30.2427 30.5244 30.6069" fill="#BA967D"/>
<path d="M19.9999 40C16.0443 40 12.1775 38.827 8.88854 36.6294C5.59956 34.4318 3.03611 31.3082 1.52235 27.6537C0.00860181 23.9992 -0.387461 19.9778 0.384243 16.0982C1.15595 12.2186 3.06077 8.65493 5.85782 5.85788C8.65487 3.06083 12.2185 1.15601 16.0981 0.384303C19.9777 -0.387401 23.9991 0.00866718 27.6536 1.52242C31.3081 3.03617 34.4317 5.59962 36.6293 8.8886C38.827 12.1776 39.9999 16.0444 39.9999 20C39.9939 25.3025 37.8848 30.3861 34.1354 34.1355C30.386 37.8849 25.3024 39.994 19.9999 40ZM19.9999 1.76215C16.3928 1.76215 12.8667 2.83178 9.86753 4.83578C6.86833 6.83978 4.53075 9.68815 3.15037 13.0207C1.76999 16.3532 1.40881 20.0202 2.11253 23.558C2.81624 27.0958 4.55322 30.3455 7.10383 32.8961C9.65444 35.4467 12.9041 37.1837 16.4419 37.8874C19.9797 38.5911 23.6467 38.23 26.9793 36.8496C30.3118 35.4692 33.1602 33.1316 35.1642 30.1324C37.1682 27.1332 38.2378 23.6071 38.2378 20C38.2323 15.1647 36.309 10.5291 32.8899 7.10999C29.4709 3.69093 24.8352 1.76767 19.9999 1.76215Z" fill="#BA967D"/>
</svg>
